<svg width="170" height="170" viewBox="0 0 775 775" xmlns="http://www.w3.org/2000/svg"><title>cloutainer</title><defs><linearGradient x1="52.796%" y1="23.407%" x2="43.61%" y2="83.659%" id="a"><stop stop-color="#0EA1CC" offset="0%"/><stop stop-color="#50D7D2" offset="100%"/></linearGradient></defs><g fill="none" fill-rule="evenodd"><rect fill="url(#a)" fill-rule="nonzero" width="775" height="775" rx="100"/><path d="M73 502v-90H43v-15h90v15h-30v90H73zm75 0v-75h15v-15h15v-15h45v15h15v15h15v75h-30v-30h-45v30h-30zm30-45h45v-30h-15v-15h-15v15h-15v30zm105 45v-15h30v-75h-30v-15h90v15h-30v75h30v15h-90zm105 0V397h30v15h15v15h15v15h15v-45h30v105h-30v-30h-15v-15h-15v-15h-15v60h-30zm120 0V397h105v15h-75v30h60v15h-60v30h75v15H508zm120 0V397h90v15h15v45h-30v15h15v15h15v15h-45v-15h-15v-15h-15v30h-30zm30-45h30v-15h15v-30h-45v45z" fill="#FFF"/><path d="M287.006 185.76h1.824c5.087 0 7.972 3.487 8.65 10.46v121.015h83.796c6.987.684 10.477 3.57 10.477 8.644v1.818c0 5.078-3.495 7.963-10.477 8.646H289.29c-7.288-.455-10.93-4.095-10.93-10.915V196.224c.678-6.978 3.563-10.467 8.645-10.467v.003zm192.79-1.367h1.824c28.01 0 50.322 13.498 66.943 40.492 5.462 12.128 8.194 23.654 8.194 34.573v1.82c0 27.98-13.51 50.272-40.526 66.873-12.144 5.46-23.68 8.192-34.61 8.192h-1.824c-28.01 0-50.322-13.496-66.94-40.49-5.464-12.127-8.196-23.657-8.196-34.574v-1.818c0-27.978 13.51-50.272 40.527-66.875 12.144-5.458 23.682-8.19 34.61-8.19v-.002zm-56.924 76.428c0 18.427 8.348 34.047 25.047 46.86 10.245 6.975 21.33 10.466 33.242 10.466 18.445 0 34.076-8.345 46.903-25.022 6.984-10.24 10.473-21.307 10.473-33.21 0-18.422-8.35-34.042-25.046-46.86-10.25-6.975-21.327-10.462-33.242-10.462-18.442 0-34.08 8.34-46.903 25.02-6.987 10.24-10.476 21.31-10.476 33.21h.002zm171.158-74.15h1.825c5.084 0 7.972 3.488 8.655 10.464v84.16c0 6.294 3.487 13.424 10.47 21.386 10.926 10.31 23.984 15.468 39.166 15.468 17.987 0 32.56-7.434 43.718-22.294 3.64-7.123 5.464-12.128 5.464-15.013l-.454-5.454v-78.25c.684-6.974 3.57-10.46 8.65-10.46h1.824c5.083 0 7.97 3.486 8.652 10.46v74.153c0 30.326-14.573 50.8-43.717 61.415-8.805 2.424-16.7 3.637-23.68 3.637h-1.825c-26.187 0-46.53-11.226-61.023-33.663-4.252-9.028-6.38-18.733-6.38-29.118v-76.425c.685-6.978 3.57-10.466 8.656-10.466zM162.716 348.084c-3.276 0-6.552-1.245-9.055-3.74-5.01-4.99-5.03-13.096-.04-18.114l2.442-2.455c.137-.14.274-.274.416-.404l50.754-50.704c2.44-2.433 5.333-6.21 5.314-10.377-.018-4.16-2.9-7.907-5.314-10.316l-52.928-52.888c-7.26-7.25-13.462-7.25-20.736.004l-53.663 53.626c-5.008 5.008-13.13 5.008-18.144.005-5.012-5.003-5.014-13.116-.003-18.123l53.672-53.633c17.33-17.285 39.705-17.285 57.015 0l52.93 52.883c8.35 8.335 12.787 18.13 12.83 28.327.045 10.29-4.388 20.188-12.833 28.615l-53.587 53.534c-2.5 2.502-5.79 3.756-9.07 3.756v.003z" fill-rule="nonzero" fill="#FFF"/></g></svg>
